<?xml version="1.0" standalone="no"?>
<!DOCTYPE svg PUBLIC "-//W3C//DTD SVG 20010904//EN"
 "http://www.w3.org/TR/2001/REC-SVG-20010904/DTD/svg10.dtd">
<svg version="1.0" xmlns="http://www.w3.org/2000/svg"
 width="2048.000000pt" height="2048.000000pt" viewBox="0 0 2048.000000 2048.000000"
 preserveAspectRatio="xMidYMid meet">
<metadata>
Created by potrace 1.16, written by Peter Selinger 2001-2019
</metadata>
<g transform="translate(0.000000,2048.000000) scale(0.100000,-0.100000)"
fill="#000000" stroke="none">
<path d="M0 10240 l0 -10240 10240 0 10240 0 0 10240 0 10240 -10240 0 -10240
0 0 -10240z m7954 6749 c778 -126 1455 -863 1765 -1921 135 -462 204 -1016
186 -1493 -8 -219 -15 -260 -59 -350 -82 -166 -258 -275 -445 -275 -234 0
-442 169 -490 398 -7 36 -9 120 -5 250 10 307 -21 654 -86 950 -217 992 -794
1616 -1327 1436 -417 -141 -792 -678 -972 -1391 -86 -339 -114 -588 -116
-1018 -2 -328 -3 -342 -25 -400 -134 -350 -563 -448 -820 -186 -71 73 -110
141 -137 241 -25 94 -24 633 1 875 100 962 432 1769 950 2303 366 378 782 581
1241 605 90 5 218 -4 339 -24z m5120 0 c778 -126 1455 -863 1765 -1921 135
-462 204 -1016 186 -1493 -8 -219 -15 -260 -59 -350 -82 -166 -258 -275 -445
-275 -234 0 -442 169 -490 398 -7 36 -9 120 -5 250 10 307 -21 654 -86 950
-217 992 -794 1616 -1327 1436 -417 -141 -792 -678 -972 -1391 -86 -339 -114
-588 -116 -1018 -2 -328 -3 -342 -25 -400 -134 -350 -563 -448 -820 -186 -71
73 -110 141 -137 241 -25 94 -24 633 1 875 100 962 432 1769 950 2303 366 378
782 581 1241 605 90 5 218 -4 339 -24z m2086 -7385 c205 -50 387 -197 484
-394 57 -114 71 -179 70 -330 0 -154 -5 -171 -124 -480 -665 -1728 -1644
-3100 -2825 -3962 -743 -542 -1536 -859 -2375 -950 -153 -16 -662 -16 -810 1
-1210 136 -2278 746 -3164 1807 -668 799 -1223 1891 -1555 3054 -114 401 -106
361 -106 520 1 130 3 153 28 225 82 244 286 433 537 496 81 20 280 17 355 -5
273 -82 456 -267 530 -537 209 -753 388 -1230 649 -1734 289 -557 584 -972
964 -1359 564 -572 1170 -894 1862 -987 140 -19 497 -16 650 5 1026 140 2015
833 2843 1993 406 567 774 1274 1056 2027 39 101 81 206 94 233 63 124 183
246 305 311 161 86 351 109 532 66z"/>
</g>
</svg>
