<?xml version="1.0" standalone="no"?>
<!DOCTYPE svg PUBLIC "-//W3C//DTD SVG 20010904//EN"
 "http://www.w3.org/TR/2001/REC-SVG-20010904/DTD/svg10.dtd">
<svg version="1.0" xmlns="http://www.w3.org/2000/svg"
 width="2048.000000pt" height="2048.000000pt" viewBox="0 0 2048.000000 2048.000000"
 preserveAspectRatio="xMidYMid meet">
<metadata>
Created by potrace 1.16, written by Peter Selinger 2001-2019
</metadata>
<g transform="translate(0.000000,2048.000000) scale(0.100000,-0.100000)"
fill="#000000" stroke="none">
<path d="M7480 17019 c-30 -4 -75 -13 -100 -19 -25 -6 -53 -11 -62 -11 -10 0
-20 -5 -23 -10 -4 -5 -10 -7 -14 -4 -10 5 -92 -18 -147 -42 -22 -9 -45 -18
-53 -19 -24 -4 -226 -106 -233 -118 -4 -6 -8 -8 -8 -3 0 8 -83 -44 -88 -55 -2
-5 -8 -8 -14 -8 -12 0 -178 -120 -178 -129 0 -4 -12 -14 -27 -23 -47 -28 -254
-238 -309 -313 -16 -21 -36 -47 -44 -56 -8 -8 -22 -26 -30 -39 -8 -12 -20 -28
-26 -34 -19 -21 -99 -141 -144 -216 -25 -41 -53 -88 -63 -105 -27 -44 -158
-311 -161 -327 -1 -7 -10 -29 -18 -48 -36 -78 -51 -115 -78 -191 -16 -43 -26
-79 -23 -79 3 0 0 -7 -7 -15 -7 -8 -9 -15 -5 -15 4 0 2 -7 -5 -15 -7 -8 -9
-15 -5 -15 4 0 3 -6 -3 -12 -14 -17 -83 -268 -77 -279 3 -4 0 -11 -6 -14 -5
-4 -8 -13 -5 -21 3 -7 1 -16 -4 -19 -5 -3 -9 -13 -9 -23 0 -9 -7 -44 -15 -77
-8 -33 -18 -76 -21 -95 -3 -19 -14 -84 -25 -145 -11 -60 -18 -118 -16 -127 2
-10 0 -21 -5 -24 -5 -3 -10 -22 -10 -42 0 -20 -3 -62 -6 -92 -3 -30 -6 -83 -7
-117 -1 -34 -3 -64 -6 -66 -4 -5 -4 -672 0 -672 1 0 3 -18 6 -40 5 -43 6 -47
49 -140 28 -60 128 -175 152 -175 7 0 13 -4 13 -8 0 -5 21 -19 48 -32 26 -12
55 -26 64 -31 10 -5 29 -9 42 -9 14 0 27 -4 30 -9 3 -5 51 -9 106 -9 55 0 103
4 106 9 3 5 16 9 30 9 13 0 32 4 42 9 9 5 38 19 65 31 26 13 47 27 47 32 0 4
6 8 13 8 11 0 92 79 92 90 0 3 10 16 23 30 12 13 22 30 22 37 0 7 5 13 11 13
5 0 7 5 4 10 -3 6 -1 10 5 10 6 0 8 5 5 10 -3 6 -3 10 2 10 4 0 15 19 22 43
11 32 15 111 17 322 3 253 7 369 20 520 5 60 39 290 54 360 6 28 12 64 15 80
4 28 7 42 20 95 11 42 15 56 29 103 8 26 15 49 16 52 0 3 0 6 1 8 0 1 2 9 4
17 2 8 17 51 32 95 16 44 30 82 30 85 1 3 7 19 13 35 7 17 13 35 14 40 1 6 10
25 19 42 10 18 17 35 17 38 0 3 6 18 14 34 9 16 12 31 9 35 -4 3 -1 6 6 6 7 0
9 5 6 10 -3 6 -1 10 5 10 6 0 8 5 5 10 -3 6 -1 10 5 10 6 0 8 5 5 10 -3 6 -1
10 5 10 6 0 8 5 5 10 -3 6 -1 10 5 10 6 0 8 5 5 10 -3 6 -1 10 6 10 7 0 10 3
6 6 -3 3 -1 11 4 18 22 26 76 125 71 130 -3 3 0 6 6 6 7 0 12 6 12 14 0 8 4
16 8 18 4 2 28 32 52 68 25 36 50 71 55 78 26 36 227 231 266 258 200 141 400
184 589 128 30 -9 60 -17 65 -18 27 -6 55 -18 55 -25 0 -5 15 -14 33 -22 17
-7 34 -15 37 -18 9 -11 79 -61 83 -61 3 0 21 -15 40 -33 19 -19 43 -40 53 -48
10 -8 44 -43 74 -79 30 -36 58 -66 62 -68 5 -2 8 -10 8 -18 0 -8 7 -17 15 -20
8 -4 15 -12 15 -20 0 -8 4 -14 8 -14 5 0 17 -16 28 -35 10 -19 22 -35 26 -35
5 0 7 -3 6 -7 -3 -10 43 -87 54 -91 5 -2 6 -8 2 -13 -3 -5 0 -9 5 -9 6 0 10
-3 9 -7 -1 -5 19 -51 45 -104 53 -112 107 -243 127 -311 8 -27 17 -48 20 -48
3 0 7 -11 8 -24 1 -13 7 -37 13 -52 14 -35 16 -41 24 -77 3 -16 17 -74 30
-130 14 -56 25 -111 25 -123 0 -11 3 -24 6 -27 4 -4 8 -23 10 -44 2 -21 13
-103 24 -183 25 -178 26 -194 33 -560 3 -162 6 -297 7 -300 1 -3 2 -9 1 -13
-3 -17 22 -87 31 -87 5 0 6 -4 3 -10 -3 -5 -1 -10 5 -10 6 0 8 -4 5 -10 -3 -5
-1 -10 5 -10 6 0 9 -4 5 -10 -3 -5 3 -18 15 -30 11 -11 19 -21 18 -23 -2 -1 3
-9 10 -17 7 -8 20 -24 30 -36 50 -60 207 -150 242 -139 10 3 21 1 25 -5 3 -5
18 -7 32 -4 18 5 24 3 19 -5 -5 -8 10 -11 53 -11 37 0 61 4 61 11 0 6 8 8 19
4 11 -3 22 -1 26 5 4 6 15 8 26 5 29 -10 159 59 216 113 27 26 60 65 73 87 13
22 26 42 29 45 10 9 30 54 33 75 2 11 6 22 10 25 3 3 9 23 11 45 2 22 7 47 10
55 8 18 1 649 -7 730 -3 30 -5 72 -5 93 0 21 -4 43 -7 49 -4 6 -9 38 -10 72
-2 34 -15 122 -29 196 -13 74 -27 146 -29 160 -11 62 -48 218 -58 250 -7 19
-13 38 -14 43 -1 4 -2 8 -4 10 -1 1 -3 11 -4 22 -4 28 -25 102 -38 134 -6 14
-12 29 -13 34 -2 4 -4 9 -5 12 -1 3 -4 10 -5 15 -1 6 -3 11 -5 13 -1 1 -3 10
-5 19 -6 34 -97 264 -117 296 -11 17 -17 32 -14 32 9 0 -115 244 -125 248 -5
2 -7 8 -3 13 3 5 0 9 -5 9 -6 0 -11 6 -11 14 0 8 -6 21 -12 28 -7 7 -24 35
-38 61 -13 26 -28 47 -32 47 -5 0 -8 5 -8 11 0 9 -46 82 -72 114 -33 41 -45
56 -58 76 -60 90 -287 328 -404 423 -165 134 -462 298 -579 320 -12 3 -23 5
-24 7 -2 1 -7 3 -13 4 -5 1 -11 3 -12 5 -2 1 -10 3 -18 5 -8 2 -24 6 -35 9
-88 23 -157 38 -200 43 -78 9 -354 11 -415 2z"/>
<path d="M12600 17019 c-30 -4 -75 -13 -100 -19 -25 -6 -53 -11 -62 -11 -10 0
-20 -5 -23 -10 -4 -5 -10 -7 -14 -4 -10 5 -92 -18 -147 -42 -22 -9 -45 -18
-53 -19 -24 -4 -226 -106 -233 -118 -4 -6 -8 -8 -8 -3 0 8 -83 -44 -88 -55 -2
-5 -8 -8 -14 -8 -12 0 -178 -120 -178 -129 0 -4 -12 -14 -27 -23 -47 -28 -254
-238 -309 -313 -16 -21 -36 -47 -44 -56 -8 -8 -22 -26 -30 -39 -8 -12 -20 -28
-26 -34 -19 -21 -99 -141 -144 -216 -25 -41 -53 -88 -63 -105 -27 -44 -158
-311 -161 -327 -1 -7 -10 -29 -18 -48 -36 -78 -51 -115 -78 -191 -16 -43 -26
-79 -23 -79 3 0 0 -7 -7 -15 -7 -8 -9 -15 -5 -15 4 0 2 -7 -5 -15 -7 -8 -9
-15 -5 -15 4 0 3 -6 -3 -12 -14 -17 -83 -268 -77 -279 3 -4 0 -11 -6 -14 -5
-4 -8 -13 -5 -21 3 -7 1 -16 -4 -19 -5 -3 -9 -13 -9 -23 0 -9 -7 -44 -15 -77
-8 -33 -18 -76 -21 -95 -3 -19 -14 -84 -25 -145 -11 -60 -18 -118 -16 -127 2
-10 0 -21 -5 -24 -5 -3 -10 -22 -10 -42 0 -20 -3 -62 -6 -92 -3 -30 -6 -83 -7
-117 -1 -34 -3 -64 -6 -66 -4 -5 -4 -672 0 -672 1 0 3 -18 6 -40 5 -43 6 -47
49 -140 28 -60 128 -175 152 -175 7 0 13 -4 13 -8 0 -5 21 -19 48 -32 26 -12
55 -26 64 -31 10 -5 29 -9 42 -9 14 0 27 -4 30 -9 3 -5 51 -9 106 -9 55 0 103
4 106 9 3 5 16 9 30 9 13 0 32 4 42 9 9 5 38 19 65 31 26 13 47 27 47 32 0 4
6 8 13 8 11 0 92 79 92 90 0 3 10 16 23 30 12 13 22 30 22 37 0 7 5 13 11 13
5 0 7 5 4 10 -3 6 -1 10 5 10 6 0 8 5 5 10 -3 6 -3 10 2 10 4 0 15 19 22 43
11 32 15 111 17 322 3 253 7 369 20 520 5 60 39 290 54 360 6 28 12 64 15 80
4 28 7 42 20 95 11 42 15 56 29 103 8 26 15 49 16 52 0 3 0 6 1 8 0 1 2 9 4
17 2 8 17 51 32 95 16 44 30 82 30 85 1 3 7 19 13 35 7 17 13 35 14 40 1 6 10
25 19 42 10 18 17 35 17 38 0 3 6 18 14 34 9 16 12 31 9 35 -4 3 -1 6 6 6 7 0
9 5 6 10 -3 6 -1 10 5 10 6 0 8 5 5 10 -3 6 -1 10 5 10 6 0 8 5 5 10 -3 6 -1
10 5 10 6 0 8 5 5 10 -3 6 -1 10 5 10 6 0 8 5 5 10 -3 6 -1 10 6 10 7 0 10 3
6 6 -3 3 -1 11 4 18 22 26 76 125 71 130 -3 3 0 6 6 6 7 0 12 6 12 14 0 8 4
16 8 18 4 2 28 32 52 68 25 36 50 71 55 78 26 36 227 231 266 258 200 141 400
184 589 128 30 -9 60 -17 65 -18 27 -6 55 -18 55 -25 0 -5 15 -14 33 -22 17
-7 34 -15 37 -18 9 -11 79 -61 83 -61 3 0 21 -15 40 -33 19 -19 43 -40 53 -48
10 -8 44 -43 74 -79 30 -36 58 -66 62 -68 5 -2 8 -10 8 -18 0 -8 7 -17 15 -20
8 -4 15 -12 15 -20 0 -8 4 -14 8 -14 5 0 17 -16 28 -35 10 -19 22 -35 26 -35
5 0 7 -3 6 -7 -3 -10 43 -87 54 -91 5 -2 6 -8 2 -13 -3 -5 0 -9 5 -9 6 0 10
-3 9 -7 -1 -5 19 -51 45 -104 53 -112 107 -243 127 -311 8 -27 17 -48 20 -48
3 0 7 -11 8 -24 1 -13 7 -37 13 -52 14 -35 16 -41 24 -77 3 -16 17 -74 30
-130 14 -56 25 -111 25 -123 0 -11 3 -24 6 -27 4 -4 8 -23 10 -44 2 -21 13
-103 24 -183 25 -178 26 -194 33 -560 3 -162 6 -297 7 -300 1 -3 2 -9 1 -13
-3 -17 22 -87 31 -87 5 0 6 -4 3 -10 -3 -5 -1 -10 5 -10 6 0 8 -4 5 -10 -3 -5
-1 -10 5 -10 6 0 9 -4 5 -10 -3 -5 3 -18 15 -30 11 -11 19 -21 18 -23 -2 -1 3
-9 10 -17 7 -8 20 -24 30 -36 50 -60 207 -150 242 -139 10 3 21 1 25 -5 3 -5
18 -7 32 -4 18 5 24 3 19 -5 -5 -8 10 -11 53 -11 37 0 61 4 61 11 0 6 8 8 19
4 11 -3 22 -1 26 5 4 6 15 8 26 5 29 -10 159 59 216 113 27 26 60 65 73 87 13
22 26 42 29 45 10 9 30 54 33 75 2 11 6 22 10 25 3 3 9 23 11 45 2 22 7 47 10
55 8 18 1 649 -7 730 -3 30 -5 72 -5 93 0 21 -4 43 -7 49 -4 6 -9 38 -10 72
-2 34 -15 122 -29 196 -13 74 -27 146 -29 160 -11 62 -48 218 -58 250 -7 19
-13 38 -14 43 -1 4 -2 8 -4 10 -1 1 -3 11 -4 22 -4 28 -25 102 -38 134 -6 14
-12 29 -13 34 -2 4 -4 9 -5 12 -1 3 -4 10 -5 15 -1 6 -3 11 -5 13 -1 1 -3 10
-5 19 -6 34 -97 264 -117 296 -11 17 -17 32 -14 32 9 0 -115 244 -125 248 -5
2 -7 8 -3 13 3 5 0 9 -5 9 -6 0 -11 6 -11 14 0 8 -6 21 -12 28 -7 7 -24 35
-38 61 -13 26 -28 47 -32 47 -5 0 -8 5 -8 11 0 9 -46 82 -72 114 -33 41 -45
56 -58 76 -60 90 -287 328 -404 423 -165 134 -462 298 -579 320 -12 3 -23 5
-24 7 -2 1 -7 3 -13 4 -5 1 -11 3 -12 5 -2 1 -10 3 -18 5 -8 2 -24 6 -35 9
-88 23 -157 38 -200 43 -78 9 -354 11 -415 2z"/>
<path d="M14845 9630 c-3 -5 -30 -12 -60 -15 -30 -4 -55 -11 -55 -16 0 -5 -7
-9 -16 -9 -20 0 -103 -39 -122 -57 -7 -7 -20 -13 -28 -13 -8 0 -17 -7 -20 -15
-4 -8 -12 -15 -18 -15 -14 0 -146 -136 -146 -149 0 -5 -7 -11 -15 -15 -8 -3
-15 -12 -15 -21 0 -8 -4 -15 -8 -15 -5 0 -15 -18 -22 -40 -7 -22 -16 -40 -20
-40 -4 0 -14 -19 -23 -42 -32 -89 -48 -133 -54 -148 -3 -8 -7 -17 -8 -20 -6
-16 -19 -50 -35 -85 -9 -22 -25 -62 -35 -90 -9 -27 -26 -69 -36 -92 -11 -24
-19 -46 -19 -49 0 -7 -18 -49 -62 -144 -17 -36 -31 -71 -31 -77 0 -7 -4 -13
-9 -13 -4 0 -7 -3 -6 -7 1 -5 -9 -33 -24 -63 -14 -30 -40 -86 -58 -125 -59
-129 -144 -300 -151 -305 -4 -3 -11 -18 -14 -33 -4 -15 -11 -27 -17 -27 -5 0
-6 -4 -3 -10 3 -5 2 -10 -4 -10 -5 0 -15 -16 -22 -35 -7 -19 -17 -35 -22 -35
-4 0 -6 -4 -3 -9 4 -5 3 -11 -1 -13 -5 -1 -26 -37 -47 -78 -21 -41 -45 -82
-52 -90 -7 -8 -14 -19 -15 -25 -1 -5 -13 -27 -25 -47 -13 -21 -24 -40 -24 -43
0 -3 -9 -15 -20 -27 -10 -12 -17 -25 -14 -30 3 -4 0 -8 -5 -8 -6 0 -11 -7 -11
-15 0 -8 -3 -15 -8 -15 -4 0 -16 -17 -27 -37 -11 -21 -22 -40 -25 -43 -3 -3
-14 -21 -24 -40 -11 -19 -36 -57 -56 -85 -20 -27 -43 -61 -50 -75 -7 -14 -16
-27 -19 -30 -15 -12 -61 -80 -61 -89 0 -6 -4 -11 -10 -11 -5 0 -10 -5 -10 -11
0 -6 -14 -28 -30 -48 -36 -43 -39 -46 -70 -91 -14 -19 -37 -48 -52 -65 -16
-16 -28 -33 -28 -37 0 -9 -24 -40 -57 -75 -13 -13 -23 -26 -23 -28 0 -3 -8
-13 -17 -23 -10 -11 -27 -30 -37 -43 -11 -13 -33 -40 -50 -59 -17 -20 -56 -65
-86 -100 -66 -78 -417 -430 -480 -482 -82 -68 -123 -103 -142 -120 -10 -10
-22 -18 -28 -18 -5 0 -10 -4 -10 -10 0 -5 -17 -21 -37 -34 -21 -13 -51 -36
-68 -50 -16 -14 -35 -30 -41 -35 -9 -7 -66 -46 -112 -76 -9 -5 -25 -18 -36
-27 -11 -10 -25 -18 -31 -18 -7 0 -20 -9 -30 -20 -10 -11 -24 -20 -31 -20 -7
0 -14 -3 -16 -7 -4 -10 -55 -44 -93 -63 -16 -8 -32 -17 -35 -20 -3 -3 -25 -14
-49 -25 -24 -11 -49 -24 -55 -30 -11 -11 -130 -70 -241 -120 -82 -37 -121 -52
-205 -83 -30 -11 -73 -26 -95 -33 -22 -6 -44 -15 -50 -19 -5 -4 -26 -11 -45
-15 -19 -3 -56 -13 -81 -21 -25 -8 -57 -17 -70 -20 -64 -14 -177 -35 -204 -39
-16 -2 -46 -6 -65 -9 -81 -12 -108 -15 -175 -21 -38 -3 -98 -8 -132 -11 -64
-5 -389 18 -443 31 -8 2 -35 7 -60 10 -25 3 -80 15 -122 25 -43 11 -86 22 -95
23 -25 5 -94 25 -183 54 -84 28 -95 32 -162 62 -26 12 -50 21 -54 21 -14 0
-300 148 -391 203 -108 65 -120 73 -186 122 -22 17 -47 35 -56 40 -9 6 -20 16
-24 22 -4 7 -14 13 -20 13 -7 0 -28 16 -47 35 -19 19 -38 35 -42 35 -4 0 -18
10 -31 23 -13 12 -48 42 -78 67 -81 68 -349 336 -414 414 -32 38 -65 77 -74
86 -9 9 -27 31 -41 50 -14 19 -33 42 -42 52 -10 10 -18 20 -18 22 0 3 -16 22
-35 43 -19 21 -35 43 -35 50 0 6 -3 13 -7 15 -5 2 -20 21 -35 43 -26 39 -40
59 -85 113 -13 15 -23 32 -23 37 0 6 -7 20 -15 30 -18 23 -159 238 -162 245
-7 23 -28 60 -34 60 -4 0 -13 16 -20 35 -7 19 -16 35 -19 35 -3 0 -14 20 -24
45 -11 25 -22 45 -26 45 -3 0 -17 25 -29 55 -13 30 -27 55 -33 55 -5 0 -7 4
-4 9 4 5 3 11 -1 13 -10 4 -93 172 -93 187 0 6 -5 11 -10 11 -6 0 -9 4 -8 8 2
4 -7 28 -18 52 -73 152 -204 452 -204 468 0 6 -39 113 -65 177 -5 11 -9 22
-10 25 -1 3 -5 12 -8 20 -9 21 -38 103 -40 115 -2 6 -6 16 -10 23 -5 6 -6 12
-3 12 3 0 -3 24 -15 53 -11 28 -29 81 -40 117 -10 36 -23 79 -28 95 -15 48
-31 110 -29 115 1 3 -4 14 -10 26 -6 11 -13 32 -16 45 -13 61 -29 119 -47 179
-11 36 -22 73 -24 83 -7 32 -78 166 -97 184 -10 9 -18 20 -18 25 0 12 -132
148 -143 148 -5 0 -15 6 -22 13 -28 25 -41 33 -98 60 -31 15 -64 27 -72 27 -8
0 -15 4 -15 9 0 5 -27 12 -60 16 -33 4 -63 11 -66 16 -7 12 -264 10 -264 -2 0
-5 -15 -9 -32 -9 -18 0 -53 -9 -77 -20 -24 -11 -51 -20 -61 -20 -9 0 -27 -9
-40 -20 -13 -11 -29 -20 -37 -20 -7 0 -13 -4 -13 -10 0 -5 -6 -10 -13 -10 -8
0 -22 -9 -32 -20 -10 -11 -22 -20 -26 -20 -9 0 -119 -107 -119 -116 0 -3 -12
-20 -27 -38 -14 -17 -32 -44 -40 -61 -7 -16 -22 -44 -32 -61 -10 -17 -22 -46
-26 -65 -4 -19 -10 -38 -13 -44 -12 -20 -15 -54 -16 -200 -1 -152 3 -189 28
-273 11 -38 80 -278 90 -317 1 -5 9 -30 16 -55 8 -25 14 -47 15 -50 6 -27 61
-198 80 -245 12 -33 28 -80 35 -104 6 -24 16 -55 22 -70 6 -14 12 -30 14 -36
11 -36 45 -129 64 -175 12 -30 26 -65 31 -77 5 -13 13 -33 18 -45 5 -13 16
-39 25 -60 9 -20 16 -39 16 -42 0 -3 9 -25 19 -49 11 -23 34 -76 51 -117 73
-174 276 -587 366 -745 25 -44 52 -93 60 -110 8 -16 32 -59 54 -94 22 -34 40
-66 40 -70 0 -3 16 -26 35 -49 19 -24 37 -53 41 -65 3 -11 17 -32 30 -46 13
-14 24 -31 24 -38 0 -6 6 -18 14 -25 7 -8 20 -27 29 -43 8 -17 29 -46 46 -65
17 -19 34 -44 37 -55 4 -10 12 -25 18 -32 24 -27 32 -39 39 -55 3 -10 11 -18
17 -18 5 0 10 -7 10 -15 0 -8 3 -15 8 -15 4 0 16 -16 26 -35 11 -19 23 -35 27
-35 4 0 17 -15 28 -33 18 -29 35 -52 72 -96 7 -7 27 -34 47 -60 19 -25 45 -57
58 -71 14 -14 32 -34 42 -46 127 -155 286 -322 502 -528 61 -58 185 -165 244
-211 43 -33 76 -60 111 -90 13 -11 33 -27 45 -35 12 -8 39 -27 59 -42 20 -16
54 -40 76 -54 22 -15 42 -31 43 -35 2 -5 8 -9 13 -9 9 0 68 -38 79 -51 3 -3
24 -16 48 -29 23 -13 42 -28 42 -32 0 -5 5 -6 10 -3 6 3 10 2 10 -4 0 -5 10
-13 22 -17 12 -3 26 -11 32 -16 14 -12 81 -52 126 -75 19 -10 37 -21 40 -24
10 -13 445 -219 461 -219 5 0 21 -7 34 -16 14 -9 25 -13 25 -9 0 4 6 3 13 -3
6 -5 48 -22 92 -36 98 -33 99 -33 105 -34 3 0 37 -12 75 -25 84 -29 177 -57
214 -63 14 -3 35 -8 46 -11 11 -4 25 -8 32 -9 7 -1 40 -9 75 -17 35 -9 81 -18
103 -21 22 -4 63 -10 90 -16 28 -5 70 -11 95 -14 25 -3 63 -8 85 -11 22 -3 56
-7 75 -10 195 -25 724 -26 845 -1 11 2 47 7 80 10 51 6 137 17 155 21 3 1 25
5 50 9 149 25 346 70 457 103 45 13 91 26 102 28 11 2 28 8 38 13 10 5 33 12
51 16 19 3 48 12 65 20 18 8 66 26 107 41 41 15 91 34 110 42 19 8 46 20 60
25 80 32 90 37 270 121 19 9 42 21 50 25 8 5 54 29 102 53 49 24 88 47 88 50
0 4 17 14 38 23 56 25 132 69 197 115 32 23 64 41 72 41 7 0 13 4 13 8 0 5 12
15 28 23 15 8 36 22 47 32 11 10 41 30 68 44 26 15 47 29 47 33 0 4 27 24 60
44 33 21 60 41 60 47 0 5 7 9 15 9 9 0 18 7 21 15 3 8 14 17 23 20 10 3 26 13
37 23 10 10 51 42 89 72 39 29 77 60 86 69 9 9 36 32 59 51 236 198 566 527
760 760 19 23 42 49 50 59 55 62 88 101 108 127 12 16 47 59 77 95 30 36 55
69 55 73 0 6 10 19 58 74 12 15 39 52 59 82 21 30 48 66 60 80 13 14 26 33 29
43 3 9 10 17 15 17 5 0 9 7 9 15 0 8 5 15 10 15 6 0 10 5 10 10 0 6 18 35 40
64 22 29 40 58 40 64 0 5 3 12 8 14 11 4 92 126 92 138 0 5 3 10 8 10 4 0 12
9 17 19 41 81 60 111 67 111 5 0 6 5 3 10 -3 6 -1 10 4 10 6 0 11 6 11 14 0 8
4 16 8 18 9 3 88 132 115 188 22 43 38 70 55 88 6 7 12 20 12 27 0 7 6 20 13
27 14 16 49 81 139 258 35 69 66 127 71 128 4 2 7 7 7 12 0 4 40 90 89 191 49
101 110 234 136 294 25 61 57 133 69 160 27 59 66 158 172 430 4 11 8 23 9 28
2 4 4 9 5 12 1 3 3 8 5 13 5 17 17 48 26 64 22 41 58 209 60 278 3 99 -3 200
-11 200 -4 0 -10 23 -14 50 -4 28 -11 50 -16 50 -6 0 -10 11 -10 24 0 14 -7
31 -15 39 -7 8 -17 26 -21 41 -3 14 -10 26 -14 26 -4 0 -10 10 -14 23 -6 25
-166 197 -183 197 -6 0 -13 7 -17 15 -3 8 -12 15 -20 15 -8 0 -21 6 -28 13
-17 16 -105 57 -122 57 -8 0 -16 4 -18 9 -1 6 -25 13 -53 16 -27 4 -55 11 -60
15 -14 11 -264 10 -270 0z"/>
</g>
</svg>
